<svg id="Layer_1" data-name="Layer 1" xmlns="http://www.w3.org/2000/svg" viewBox="0 0 31.21 31.22"><defs><style>.cls-1{fill:#d8e4ec;}</style></defs><path class="cls-1" d="M16,.4c3.19,0,6.39,0,9.59,0a6.16,6.16,0,0,1,5.76,4.47,5.68,5.68,0,0,1,.23,1.54c0,4.3,0,8.61,0,12.91A6.15,6.15,0,0,1,27,25.14a6.5,6.5,0,0,1-1.7.22H15.5a.89.89,0,0,0-.7.29C13,27.48,11.15,29.3,9.32,31.13a1.51,1.51,0,0,1-1.54.42,1.47,1.47,0,0,1-1.11-1.18,1.81,1.81,0,0,1,0-.4c0-1.43,0-2.85,0-4.28,0-.24,0-.33-.31-.34A6.24,6.24,0,0,1,.47,20.13a4.77,4.77,0,0,1-.07-.76c0-4.34,0-8.68,0-13A6.19,6.19,0,0,1,5.13.56,7.49,7.49,0,0,1,6.83.39H16ZM9,15.21a2.35,2.35,0,0,0,0-4.69,2.37,2.37,0,0,0-2.36,2.34A2.34,2.34,0,0,0,9,15.21Zm7,0a2.35,2.35,0,1,0,0-4.69,2.37,2.37,0,0,0-2.33,2.33A2.34,2.34,0,0,0,16,15.21Zm7,0a2.35,2.35,0,0,0,0-4.69,2.37,2.37,0,0,0-2.36,2.34A2.35,2.35,0,0,0,23,15.21Z" transform="translate(-0.4 -0.39)"/></svg>